<?xml version="1.0" encoding="utf-8"?>
<!-- Generator: Adobe Illustrator 16.0.0, SVG Export Plug-In . SVG Version: 6.00 Build 0)  -->
<!DOCTYPE svg PUBLIC "-//W3C//DTD SVG 1.1//EN" "http://www.w3.org/Graphics/SVG/1.1/DTD/svg11.dtd">
<svg version="1.1" id="Layer_1" xmlns="http://www.w3.org/2000/svg" xmlns:xlink="http://www.w3.org/1999/xlink" x="0px" y="0px"
	 width="128px" height="128px" viewBox="0 0 128 128" enable-background="new 0 0 128 128" xml:space="preserve">
<g>
	<g>
		<g>
			<rect x="62" fill="#282D33" width="4" height="7.66"/>
		</g>
		<g>
			
				<rect x="47.395" y="3.512" transform="matrix(0.2589 0.9659 -0.9659 0.2589 43.2885 -45.3945)" fill="#282D33" width="7.66" height="4"/>
		</g>
		<g>
			
				<rect x="35.493" y="8.442" transform="matrix(0.4999 0.8661 -0.8661 0.4999 28.7075 -28.8346)" fill="#282D33" width="7.658" height="4"/>
		</g>
		<g>
			
				<rect x="25.27" y="16.285" transform="matrix(0.707 0.7072 -0.7072 0.707 21.4588 -15.2227)" fill="#282D33" width="7.661" height="4"/>
		</g>
		<g>
			
				<rect x="17.426" y="26.507" transform="matrix(0.866 0.5 -0.5 0.866 17.0999 -6.8083)" fill="#282D33" width="7.659" height="4"/>
		</g>
		<g>
			
				<rect x="12.495" y="38.41" transform="matrix(0.9659 0.2587 -0.2587 0.9659 11.0118 -2.8477)" fill="#282D33" width="7.66" height="4.001"/>
		</g>
		<g>
			<rect x="10.813" y="51.185" fill="#282D33" width="7.659" height="4"/>
		</g>
		<g>
			<rect x="109.527" y="51.189" fill="#282D33" width="7.66" height="4"/>
		</g>
		<g>
			
				<rect x="109.674" y="36.586" transform="matrix(0.2588 0.9659 -0.9659 0.2588 121.8153 -77.9145)" fill="#282D33" width="4.001" height="7.656"/>
		</g>
		<g>
			
				<rect x="104.746" y="24.681" transform="matrix(0.5 0.866 -0.866 0.5 78.0603 -78.189)" fill="#282D33" width="4" height="7.659"/>
		</g>
		<g>
			
				<rect x="96.9" y="14.459" transform="matrix(0.7074 0.7069 -0.7069 0.7074 41.8706 -64.5569)" fill="#282D33" width="4.001" height="7.659"/>
		</g>
		<g>
			
				<rect x="86.68" y="6.614" transform="matrix(0.8662 0.4997 -0.4997 0.8662 17.0863 -42.9189)" fill="#282D33" width="4" height="7.658"/>
		</g>
		<g>
			
				<rect x="74.776" y="1.685" transform="matrix(0.966 0.2586 -0.2586 0.966 4.0371 -19.6658)" fill="#282D33" width="3.999" height="7.658"/>
		</g>
	</g>
	<g>
		<g>
			<path fill="#282D33" d="M83.13,108.244H44.123l-1.996-1.866c-0.221-3.283-0.915-7.772-2.968-10.509
				C23.88,76.207,23.452,57.417,23.452,57.233h4c0,0.17,0.405,17.574,14.887,36.208c2.25,3,3.213,7.25,3.613,10.803h35.36
				c0.419-3.551,1.401-7.8,3.643-10.778c14.507-18.682,14.912-36.063,14.912-36.233h4c0,0.184-0.428,18.951-15.734,38.663
				c-2.046,2.718-2.767,7.21-3.007,10.495L83.13,108.244z"/>
		</g>
		<g>
			<g>
				<rect x="38.817" y="104.695" fill="#282D33" width="49.685" height="4"/>
			</g>
			<g>
				<rect x="38.817" y="114.348" fill="#282D33" width="49.685" height="4"/>
			</g>
			<g>
				<rect x="46.436" y="124" fill="#282D33" width="34.447" height="4"/>
			</g>
			<g>
				<rect x="42.582" y="107.209" fill="#282D33" width="4" height="9.164"/>
			</g>
		</g>
		<g>
			<path fill="#282D33" d="M53.562,39.61h-4c0-2.607-2.122-4.729-4.729-4.729h-6.549v-4h6.549
				C49.646,30.881,53.562,34.797,53.562,39.61z"/>
		</g>
		<g>
			<path fill="#282D33" d="M61.703,105.549h-4V32.632c0-4.463-3.631-8.095-8.093-8.095c-4.464,0-8.096,3.631-8.096,8.095h-4
				c0-6.669,5.426-12.095,12.096-12.095c6.668,0,12.093,5.426,12.093,12.095V105.549z"/>
		</g>
		<g>
			<path fill="#282D33" d="M38.284,48.365c-4.814,0-8.73-3.916-8.73-8.728c0-4.814,3.916-8.731,8.73-8.731h1.409v4h-1.409
				c-2.608,0-4.73,2.122-4.73,4.731c0,2.607,2.122,4.728,4.73,4.728V48.365z"/>
		</g>
		<g>
			<path fill="#282D33" d="M27.369,53.822h-4c0-5.315,4.323-9.639,9.638-9.639h3.276v4h-3.276
				C29.898,48.183,27.369,50.712,27.369,53.822z"/>
		</g>
		<g>
			<path fill="none" stroke="#282D33" stroke-width="4" stroke-linejoin="bevel" d="M30.37,60.207"/>
		</g>
		<g>
			<path fill="#282D33" d="M49.453,48.032H46.61c-2.908,0-5.274-2.367-5.274-5.276v-3.021h4v3.021c0,0.704,0.571,1.276,1.274,1.276
				h2.843V48.032z"/>
		</g>
		<g>
			<path fill="#282D33" d="M77.757,39.608h-4c0-4.812,3.916-8.727,8.729-8.727h6.548v4h-6.548
				C79.879,34.881,77.757,37.001,77.757,39.608z"/>
		</g>
		<g>
			<path fill="#282D33" d="M69.613,105.547h-4V32.632c0-6.669,5.426-12.095,12.095-12.095c6.67,0,12.097,5.426,12.097,12.095h-4
				c0-4.463-3.632-8.095-8.097-8.095c-4.464,0-8.095,3.631-8.095,8.095V105.547z"/>
		</g>
		<g>
			<path fill="#282D33" d="M89.034,48.365v-4c2.609,0,4.731-2.122,4.731-4.729c0-2.607-2.122-4.729-4.731-4.729h-1.409v-4h1.409
				c4.814,0,8.731,3.916,8.731,8.729C97.766,44.449,93.849,48.365,89.034,48.365z"/>
		</g>
		<g>
			<path fill="#282D33" d="M103.95,53.82h-4c0-3.108-2.53-5.637-5.64-5.637h-3.274v-4h3.274
				C99.626,44.183,103.95,48.506,103.95,53.82z"/>
		</g>
		<g>
			<path fill="#282D33" d="M80.709,48.032h-2.843v-4h2.843c0.702,0,1.273-0.573,1.273-1.276v-3.021h4v3.021
				C85.982,45.665,83.617,48.032,80.709,48.032z"/>
		</g>
		<g>
			<rect x="24.815" y="57.735" fill="#282D33" width="33.924" height="4"/>
		</g>
		<g>
			<rect x="70.047" y="57.735" fill="#282D33" width="33.139" height="4"/>
		</g>
	</g>
</g>
</svg>
