<svg xmlns="http://www.w3.org/2000/svg" viewBox="0 0 88 88"><path d="M40 32a12 12 0 1 0 12 12 12.013 12.013 0 0 0-12-12zm0 22a10 10 0 1 1 10-10 10.011 10.011 0 0 1-10 10z" style="fill:#202021"/><path d="M42 41a1 1 0 0 0 2 0 3.003 3.003 0 0 0-3-3v-1a1 1 0 0 0-2 0v1a3.003 3.003 0 0 0-3 3v.559a2.997 2.997 0 0 0 2.05 2.846l.95.316V48a1 1 0 0 1-1-1 1 1 0 0 0-2 0 3.003 3.003 0 0 0 3 3v1a1 1 0 0 0 2 0v-1a3.003 3.003 0 0 0 3-3v-.559a2.997 2.997 0 0 0-2.05-2.846L41 43.28V40a1 1 0 0 1 1 1zm-.684 4.493a.998.998 0 0 1 .684.948V47a1 1 0 0 1-1 1v-2.613zM39 42.613l-.316-.106A.998.998 0 0 1 38 41.56V41a1 1 0 0 1 1-1zM21 41a3 3 0 1 0 3 3 3.003 3.003 0 0 0-3-3zm0 4a1 1 0 1 1 1-1 1 1 0 0 1-1 1zM59 41a3 3 0 1 0 3 3 3.003 3.003 0 0 0-3-3zm0 4a1 1 0 1 1 1-1 1 1 0 0 1-1 1z" style="fill:#202021"/><path d="M84 31.4V15a1 1 0 0 0-1-1H9a1 1 0 0 0-1 1v5H3a1 1 0 0 0-1 1v46a1 1 0 0 0 1 1h65v2c0 2.626 4.527 4 9 4s9-1.374 9-4V34a3.12 3.12 0 0 0-2-2.6zm0 29.207V64c0 .58-2.453 2-7 2s-7-1.42-7-2v-3.393A16.16 16.16 0 0 0 77 62a16.15 16.15 0 0 0 7-1.393zM77 32c3.049 0 7 1 7 2 0 .58-2.453 2-7 2s-7-1.42-7-2c.44-1.482 5.145-2 7-2zm-9 21.934A8.955 8.955 0 0 0 63.055 61h-46.11A9.017 9.017 0 0 0 9 53.055v-18.11A9.017 9.017 0 0 0 16.944 27h46.113A9.041 9.041 0 0 0 68 34.057zm16 .673V58c0 .58-2.453 2-7 2s-7-1.42-7-2v-3.393A16.147 16.147 0 0 0 77 56a16.158 16.158 0 0 0 7-1.393zm0-6V52c0 .58-2.453 2-7 2s-7-1.42-7-2v-3.393A16.147 16.147 0 0 0 77 50a16.15 16.15 0 0 0 7-1.393zm0-6V46c0 .58-2.453 2-7 2s-7-1.42-7-2v-3.393A16.147 16.147 0 0 0 77 44a16.149 16.149 0 0 0 7-1.393zm0-6V40c0 .58-2.453 2-7 2s-7-1.42-7-2v-3.393A16.147 16.147 0 0 0 77 38a16.162 16.162 0 0 0 7-1.393zM10 16h72v14.617a19.317 19.317 0 0 0-4-.595V21a1 1 0 0 0-1-1H10zM4 66V22h72v8.023c-2.218.103-5.594.642-7.172 2.192A7.007 7.007 0 0 1 65 26a1 1 0 0 0-1-1H16a1 1 0 0 0-1 1 7.008 7.008 0 0 1-7 7 1 1 0 0 0-1 1v20a1 1 0 0 0 1 1 7.008 7.008 0 0 1 7 7 1 1 0 0 0 1 1h48a1 1 0 0 0 1-1 6.957 6.957 0 0 1 3-5.728V66zm80 4c0 .58-2.453 2-7 2s-7-1.42-7-2v-3.393A16.147 16.147 0 0 0 77 68a16.162 16.162 0 0 0 7-1.393z" style="fill:#202021"/></svg>