<svg xmlns="http://www.w3.org/2000/svg" width="47.999" height="48.002"><g fill="#1a171b"><path d="M9.688 9.69a4.256 4.256 0 0 0-.445.529.728.728 0 0 0 1.188.842 2.563 2.563 0 0 1 .287-.342 2.587 2.587 0 1 1 1.1 4.31.727.727 0 0 0-.408 1.4 4.085 4.085 0 0 0 1.139.164 4.042 4.042 0 1 0-2.858-6.9z"/><path d="M47.031 27.432 22.76 3.161a3.315 3.315 0 0 0-2.924-.918l-6.507 1.164a.727.727 0 0 0 .256 1.432l6.507-1.164a1.857 1.857 0 0 1 1.64.514L46 28.46a1.862 1.862 0 0 1 0 2.627L31.085 46.005a1.863 1.863 0 0 1-2.626 0L4.188 21.734a1.861 1.861 0 0 1-.515-1.641l1.473-8.227a11.959 11.959 0 0 0 3.63 1.977 6.551 6.551 0 0 0 1.96.33 3.415 3.415 0 0 0 2.5-.936 3.015 3.015 0 0 0 .645-.965.727.727 0 1 0-1.341-.564 1.518 1.518 0 0 1-.332.5c-.574.576-1.668.666-3 .248a11.058 11.058 0 0 1-3.771-2.24l.5-2.777a1.866 1.866 0 0 1 1.5-1.5.727.727 0 1 0-.255-1.432 3.322 3.322 0 0 0-2.676 2.676l-.321 1.8a11.259 11.259 0 0 1-2.467-4.022c-.419-1.328-.329-2.42.247-2.994s1.668-.666 3-.248A11.725 11.725 0 0 1 9.51 4.664a13.42 13.42 0 0 1 2.021 2.555.727.727 0 0 0 1.245-.752 14.987 14.987 0 0 0-2.238-2.832A13.217 13.217 0 0 0 5.4.33C3.506-.266 1.921-.049.935.937S-.266 3.507.33 5.4a13.189 13.189 0 0 0 3.3 5.143c.076.076.155.146.232.221l-1.62 9.074a3.317 3.317 0 0 0 .918 2.924l24.271 24.271a3.314 3.314 0 0 0 4.683 0l14.918-14.918a3.318 3.318 0 0 0-.001-4.683z"/><path d="M8.078 19.8a.725.725 0 0 0 0 1.027L29.256 42a.732.732 0 0 0 .511.244h.063a.654.654 0 0 0 .513-.3c.37-.438 7.173-7.2 11.655-11.648a.727.727 0 0 0 0-1.03L20.821 8.078a.727.727 0 0 0-1.028 1.029l20.661 20.662c-7.1 7.035-9.715 9.67-10.695 10.678L9.107 19.8a.725.725 0 0 0-1.029 0z"/><path d="M24.347 20.329a.727.727 0 0 0 .55-1.347 4.4 4.4 0 0 0-4.279.617l-.857-.855a.727.727 0 0 0-1.028 1.027l.863.863a4.591 4.591 0 0 0-.919 2.512 3.969 3.969 0 0 0 1.144 3.039 4.06 4.06 0 0 0 2.845 1.3h.034a4.588 4.588 0 0 0 3.236-1.541 3.222 3.222 0 0 1 2.22-1.121h.012a2.7 2.7 0 0 1 1.832.866 2.89 2.89 0 0 1-.243 4.057 3.071 3.071 0 0 1-3.257.773.727.727 0 1 0-.55 1.345 4.137 4.137 0 0 0 1.565.3 4.575 4.575 0 0 0 2.695-.922l.866.865a.727.727 0 1 0 1.024-1.022l-.863-.863a4.265 4.265 0 0 0-.214-5.561 4.062 4.062 0 0 0-2.853-1.293h-.021a4.6 4.6 0 0 0-3.249 1.545 3.215 3.215 0 0 1-2.2 1.117.05.05 0 0 1-.017 0 2.7 2.7 0 0 1-1.83-.871 2.536 2.536 0 0 1-.72-1.943 3.22 3.22 0 0 1 .964-2.111 3.062 3.062 0 0 1 3.25-.776z"/></g></svg>