<svg xmlns="http://www.w3.org/2000/svg" viewBox="0 0 48 48"><defs><style>.cls-1{fill:#201602;}</style></defs><title>Asset 26ldpi</title><g id="Layer_2" data-name="Layer 2"><g id="layer_1-2" data-name="layer 1"><path class="cls-1" d="M14,14c-2.76,0-5-2.69-5-6a4.68,4.68,0,0,1,5-5,4.68,4.68,0,0,1,5,5C19,11.31,16.76,14,14,14Zm0-9a2.72,2.72,0,0,0-3,3c0,2.21,1.35,4,3,4s3-1.79,3-4A2.72,2.72,0,0,0,14,5Z"/><rect class="cls-1" x="8" y="18" width="2" height="8"/><path class="cls-1" d="M24,26H22V17.58a3,3,0,0,0-2.67-3L14,14l-5.33.59a3,3,0,0,0-2.67,3V26H4V17.58a5,5,0,0,1,4.45-5l5.44-.6h.22l5.44.6a5,5,0,0,1,4.45,5Z"/><rect class="cls-1" x="18" y="18" width="2" height="8"/><rect class="cls-1" x="9" y="25" width="10" height="2"/><rect class="cls-1" x="30" y="35" width="4" height="2"/><rect class="cls-1" x="9" y="35" width="18" height="2"/><rect class="cls-1" x="27" y="21" width="12" height="2"/><rect class="cls-1" x="29" y="17" width="12" height="2"/><path class="cls-1" d="M44,42H4a1,1,0,0,1-1-1V26a1,1,0,0,1,1-1H44a1,1,0,0,1,1,1V41A1,1,0,0,1,44,42ZM5,40H43V27H5Z"/><path class="cls-1" d="M35,14a1,1,0,0,1-.71-.29l-6-6a1,1,0,0,1,.13-1.52l7-5a1,1,0,0,1,1.29.1l4,4a1,1,0,0,1,.1,1.29l-5,7a1,1,0,0,1-.73.42ZM30.54,7.13l4.33,4.33,3.82-5.35-2.8-2.8Z"/><rect class="cls-1" x="43" y="41" width="2" height="7"/><rect class="cls-1" x="3" y="41" width="2" height="7"/><rect class="cls-1" y="25" width="48" height="2"/><path class="cls-1" d="M45,26.16l-2-.32L45.93,7.35,41,2.41l-2.29,2.3L37.29,3.29l3-3a1,1,0,0,1,1.42,0l6,6a1,1,0,0,1,.28.87Z"/></g></g></svg>