<svg xmlns="http://www.w3.org/2000/svg" viewBox="0 0 25 25"><defs><style>.cls-1{fill:#231f20}</style></defs><g id="time"><path class="cls-1" d="M23.82 10.44a.5.5 0 1 0-1 .17A10.89 10.89 0 0 1 23 12.5a.5.5 0 0 0 1 0 11.77 11.77 0 0 0-.18-2.06zM17.45 21.76a9.69 9.69 0 0 1-1.23.56.5.5 0 0 0 .18 1 .57.57 0 0 0 .18 0 13.44 13.44 0 0 0 1.34-.61.51.51 0 0 0 .2-.68.5.5 0 0 0-.67-.27zM20.75 19a10 10 0 0 1-1 1.07.5.5 0 0 0 .35.86.49.49 0 0 0 .35-.14 10.66 10.66 0 0 0 1.06-1.17.5.5 0 1 0-.78-.62zM23.22 15a.5.5 0 0 0-.62.34 10 10 0 0 1-.5 1.39.49.49 0 0 0 .25.66.48.48 0 0 0 .2 0 .5.5 0 0 0 .46-.3 11.87 11.87 0 0 0 .55-1.51.5.5 0 0 0-.34-.58zM22.5 8h.07a.5.5 0 0 0 .2-.08h.05a.8.8 0 0 0 .18-.25l1-3a.5.5 0 1 0-1-.33l-.65 1.93A11.71 11.71 0 0 0 12.5 1a11.5 11.5 0 0 0 0 23 12.62 12.62 0 0 0 1.38-.08.51.51 0 0 0 .44-.56.5.5 0 0 0-.56-.43A10.5 10.5 0 1 1 12.5 2a10.64 10.64 0 0 1 9.12 5H19.5a.5.5 0 0 0 0 1h3z"/><path class="cls-1" d="M12 5.5v7.1l-4.84 4.54a.49.49 0 0 0 0 .7.46.46 0 0 0 .34.16.45.45 0 0 0 .34-.14l5-4.68a.48.48 0 0 0 .16-.36V5.5a.5.5 0 0 0-1 0z"/></g></svg>