<svg width="130" height="48" viewBox="0 0 130 48" fill="none" xmlns="http://www.w3.org/2000/svg">
<rect x="0.5" y="0.5" width="129" height="47" rx="4.5" fill="white"/>
<rect x="0.5" y="0.5" width="129" height="47" rx="4.5" stroke="#D9D9D9"/>
<path d="M45.8508 19.209H43.9426V29.5161H45.8508V19.209Z" fill="#2A3362"/>
<path d="M53.2359 25.8589C53.2359 27.2814 52.3642 27.9206 51.2034 27.9206C50.0426 27.9206 49.2668 27.2814 49.2668 25.931V22.2578H47.3586V26.3961C47.3586 28.4565 48.5893 29.6614 50.636 29.6614C51.9224 29.6614 52.6413 29.1641 53.1234 28.602H53.2347L53.4006 29.5172H55.1559V22.2578H53.2359V25.8589Z" fill="#2A3362"/>
<path d="M71.954 28.0798C70.5575 28.0798 69.7698 27.4121 69.6455 26.4397H75.7016C75.7295 26.2375 75.7434 26.0335 75.7431 25.8292C75.73 23.2179 73.8479 22.1124 71.8343 22.1124C69.4974 22.1124 67.7408 23.5797 67.7408 25.9461C67.7408 28.1955 69.4287 29.6615 71.9587 29.6615C74.0753 29.6615 75.4848 28.6755 75.7762 27.1647H73.8906C73.6549 27.7603 72.9773 28.0798 71.954 28.0798ZM71.8355 23.6954C73.0531 23.6954 73.7579 24.2611 73.8692 25.0632H69.6869C69.8658 24.2947 70.5717 23.6954 71.8296 23.6954H71.8355Z" fill="#2A3362"/>
<path d="M78.9849 23.2999H78.8664L78.6864 22.2542H76.9523V29.5173H78.8605V26.3962C78.8605 24.9873 79.634 24.2039 81.0731 24.2039C81.3345 24.2001 81.5957 24.2243 81.8524 24.276V22.2579H81.5859C80.3138 22.2579 79.5238 22.5339 78.9849 23.2999Z" fill="#2A3362"/>
<path d="M91.2216 27.2516H91.1114L89.4792 22.7079H87.5154L85.9116 27.2379H85.7873L84.2664 22.2578H82.3713L84.7082 29.5172H86.7834L88.4428 24.8853H88.553L90.1852 29.5172H92.2734L94.6103 22.2578H92.7152L91.2216 27.2516Z" fill="#2A3362"/>
<path d="M102.205 27.4034V24.9736C102.205 22.999 100.614 22.1136 98.6363 22.1136C96.535 22.1136 95.2215 23.1594 95.0414 24.7249H96.9496C97.0882 24.0423 97.6413 23.6655 98.6363 23.6655C99.6312 23.6655 100.294 24.0572 100.294 24.8555V25.0408L97.1829 25.2895C95.745 25.4064 94.6956 26.0741 94.6956 27.4966C94.6956 28.9627 95.899 29.659 97.6685 29.659C99.097 29.659 99.9676 29.2412 100.501 28.6108H100.595C100.895 29.3196 101.503 29.5148 102.164 29.5148H102.965V28.0363H102.785C102.384 28.0363 102.205 27.8336 102.205 27.4034ZM100.296 26.6337C100.296 27.7814 98.9928 28.1582 97.8758 28.1582C97.1154 28.1582 96.6179 27.9555 96.6179 27.4034C96.6179 26.906 97.0467 26.6635 97.6839 26.6051L100.297 26.4024L100.296 26.6337Z" fill="#2A3362"/>
<path d="M109.26 22.2578L107.033 27.514H106.909L104.655 22.2578H102.594L105.815 29.5172H108.098L111.305 22.2578H109.26Z" fill="#2A3362"/>
<path d="M117.405 27.1647C117.168 27.7603 116.492 28.0798 115.469 28.0798C114.072 28.0798 113.285 27.4121 113.16 26.4397H119.216C119.244 26.2375 119.258 26.0335 119.258 25.8292C119.245 23.2179 117.363 22.1124 115.349 22.1124C113.012 22.1124 111.257 23.5797 111.257 25.9461C111.257 28.1955 112.943 29.6615 115.473 29.6615C117.59 29.6615 119 28.6755 119.291 27.1647H117.405ZM115.344 23.6954C116.562 23.6954 117.267 24.2611 117.378 25.0632H113.197C113.378 24.2947 114.082 23.6954 115.34 23.6954H115.344Z" fill="#2A3362"/>
<path d="M40.8418 21.7232C40.8418 21.0841 41.2705 20.8093 41.8237 20.8093C42.081 20.8118 42.3367 20.8507 42.5841 20.9249L42.9027 19.4726C42.4408 19.3011 41.9547 19.2128 41.4648 19.2114C40.0541 19.2114 38.9206 19.9961 38.9206 21.6213V22.2579H37.2742V23.8483H38.9206V29.5173H40.8418V23.8471H42.9927V22.2579H40.8418V21.7232Z" fill="#2A3362"/>
<path d="M59.3667 20.2112H57.59L57.4905 22.2579H55.9886V23.8483H57.4549V27.427C57.4549 28.6457 58.0472 29.6653 59.8239 29.6653C60.2845 29.6653 60.7437 29.6119 61.1931 29.5061V27.9779C60.934 28.0389 60.6697 28.073 60.4043 28.0799C59.4508 28.0799 59.3679 27.5141 59.3679 27.0776V23.8446H61.263V22.2579H59.3667V20.2112Z" fill="#2A3362"/>
<path d="M65.3589 20.2112H63.5881L63.4886 22.2579H61.9832V23.8483H63.4495V27.427C63.4495 28.6457 64.0417 29.6653 65.8184 29.6653C66.278 29.6638 66.736 29.6092 67.1841 29.5024V27.9779C66.925 28.0389 66.6608 28.073 66.3953 28.0799C65.4418 28.0799 65.3589 27.5141 65.3589 27.0776V23.8446H67.2599V22.2579H65.3589V20.2112Z" fill="#2A3362"/>
<path d="M10.7126 18.9341C10.7126 17.769 11.0372 16.7742 11.7183 16.0592L12.9027 17.3027C11.5844 18.6817 12.7357 22.9692 16.4893 26.9135C20.2428 30.8578 24.3292 32.0652 25.6463 30.6837L26.8308 31.9271C24.6087 34.2599 19.5475 32.6048 15.3107 28.1557C12.3721 25.0694 10.7126 21.5678 10.7126 18.9341Z" fill="#009A46"/>
<path d="M18.1819 32.999C17.072 32.999 16.1244 32.6583 15.4422 31.9433L16.6267 30.6998C17.9426 32.0813 22.0266 30.8727 25.7837 26.9296C29.5408 22.9866 30.6898 18.6991 29.3738 17.3176L30.5583 16.0741C32.7815 18.4068 31.2038 23.7202 26.9658 28.1681C24.026 31.2581 20.6905 32.999 18.1819 32.999Z" fill="#FF5805"/>
<path d="M27.3579 26.3888C26.6389 24.2152 25.1702 21.8924 23.2217 19.8481C18.9849 15.399 13.9237 13.7426 11.7017 16.0766C11.5441 16.2433 11.6804 16.6549 12.0073 16.9981C12.3342 17.3413 12.7262 17.483 12.8838 17.3176C14.2009 15.9361 18.2849 17.1448 22.0408 21.0891C23.8175 22.9543 25.1417 25.0371 25.7802 26.9645C26.3392 28.6544 26.2847 30.0172 25.6333 30.7011C25.4746 30.8665 25.612 31.2793 25.9377 31.6213C26.2634 31.9632 26.6567 32.1075 26.8154 31.9409C27.9536 30.7459 28.1467 28.7712 27.3579 26.3888Z" fill="#F5AFCB"/>
<path d="M30.5559 16.0766C29.4153 14.8792 27.5367 14.6765 25.2649 15.5059C23.1957 16.2594 20.9819 17.8026 19.0347 19.8468C14.7979 24.2947 13.2202 29.6081 15.4422 31.9421C15.6009 32.1075 15.993 31.9645 16.3199 31.6225C16.6468 31.2806 16.783 30.8677 16.6243 30.7011C15.3048 29.3196 16.4597 25.0321 20.2168 21.0878C21.9935 19.2226 23.9774 17.8324 25.8133 17.1622C27.423 16.5765 28.7212 16.6325 29.3738 17.3164C29.5314 17.4817 29.9246 17.3388 30.2503 16.9956C30.5761 16.6524 30.7135 16.242 30.5559 16.0766Z" fill="#FF9B00"/>
</svg>
