<?xml version="1.0" encoding="iso-8859-1"?>
<!-- Uploaded to: SVG Repo, www.svgrepo.com, Generator: SVG Repo Mixer Tools -->
<svg fill="#000000" height="800px" width="800px" version="1.1" id="Layer_1" xmlns="http://www.w3.org/2000/svg" xmlns:xlink="http://www.w3.org/1999/xlink" 
	 viewBox="0 0 511.997 511.997" xml:space="preserve">
<g>
	<g>
		<path d="M416.629,208.713l3.573-32.819l-60.168-6.55l8.337-76.577l16.409,1.786l3.573-32.819l-82.048-8.932l5.36-49.228L278.845,0
			l-5.36,49.228l-82.047-8.932l-3.573,32.819l16.41,1.786l-8.337,76.577l-60.168-6.55l-3.573,32.819l16.411,1.787l-8.337,76.577
			l-16.41-1.787l-3.573,32.819l16.411,1.786l-8.337,76.577l-16.409-1.786l-3.573,32.819l16.409,1.786l-8.78,80.658H91.794v33.013
			h308.121v-33.013h-29.312l5.799-53.268l16.41,1.787l3.573-32.819l-16.41-1.787l8.336-76.577l16.41,1.787l3.573-32.819
			l-16.411-1.787l8.337-76.577L416.629,208.713z M237.094,78.475l41.762,4.546l56.695,6.171l-8.337,76.578l-32.819-3.573
			l2.978-27.349c0.986-9.063-5.56-17.21-14.622-18.196c-9.063-0.987-17.21,5.56-18.197,14.624l-2.977,27.349l-32.819-3.573
			L237.094,78.475z M337.395,478.987h-38.743l1.878-17.249c0.986-9.063-5.56-17.21-14.623-18.197
			c-9.063-0.987-17.211,5.56-18.197,14.624l-2.267,20.822h-44.277l2.785-25.586c0.986-9.062-5.56-17.21-14.623-18.196
			c-9.063-0.986-17.211,5.56-18.197,14.624l-3.174,29.159h-38.743l8.392-77.085l185.974,20.245L337.395,478.987z M347.155,389.327
			l-38.288-4.168l2.977-27.349c0.987-9.062-5.56-17.21-14.624-18.196c-9.062-0.986-17.21,5.56-18.196,14.624l-2.977,27.349
			l-43.759-4.764l2.978-27.349c0.986-9.063-5.562-17.21-14.624-18.196c-9.062-0.987-17.21,5.56-18.196,14.624l-2.978,27.349
			l-38.288-4.168l8.337-76.577l185.974,20.245L347.155,389.327z M359.065,279.931l-38.288-4.168l2.978-27.349
			c0.987-9.062-5.562-17.21-14.624-18.196c-9.062-0.987-17.21,5.56-18.196,14.623l-2.978,27.349l-43.759-4.764l2.977-27.349
			c0.986-9.063-5.562-17.21-14.624-18.197c-9.062-0.986-17.21,5.56-18.196,14.624l-2.977,27.349l-38.288-4.168l8.337-76.577
			l185.974,20.245L359.065,279.931z"/>
	</g>
</g>
</svg>